<?xml version="1.0" encoding="UTF-8" standalone="no"?>
<svg
   xmlns:dc="http://purl.org/dc/elements/1.1/"
   xmlns:cc="http://creativecommons.org/ns#"
   xmlns:rdf="http://www.w3.org/1999/02/22-rdf-syntax-ns#"
   xmlns:svg="http://www.w3.org/2000/svg"
   xmlns="http://www.w3.org/2000/svg"
   xmlns:sodipodi="http://sodipodi.sourceforge.net/DTD/sodipodi-0.dtd"
   xmlns:inkscape="http://www.inkscape.org/namespaces/inkscape"
   width="33.812496mm"
   height="19.260448mm"
   viewBox="0 0 127.79526 72.795396"
   version="1.1"
   id="svg4399"
   inkscape:version="1.0.2 (e86c870879, 2021-01-15)"
   sodipodi:docname="viewitem.svg">
  <defs
     id="defs4393" />
  <sodipodi:namedview
     id="base"
     pagecolor="#e5ffff"
     bordercolor="#666666"
     borderopacity="1.0"
     inkscape:pageopacity="1"
     inkscape:pageshadow="2"
     inkscape:zoom="47.115584"
     inkscape:cx="44.525434"
     inkscape:cy="40.504682"
     inkscape:document-units="px"
     inkscape:current-layer="layer1"
     inkscape:document-rotation="0"
     showgrid="true"
     inkscape:window-width="2560"
     inkscape:window-height="1281"
     inkscape:window-x="0"
     inkscape:window-y="0"
     inkscape:window-maximized="1"
     fit-margin-left="5"
     fit-margin-top="5"
     fit-margin-bottom="5"
     fit-margin-right="5">
    <inkscape:grid
       type="xygrid"
       id="grid4980"
       originx="-196.10236"
       originy="-561.1024" />
  </sodipodi:namedview>
  <metadata
     id="metadata4396">
    <rdf:RDF>
      <cc:Work
         rdf:about="">
        <dc:format>image/svg+xml</dc:format>
        <dc:type
           rdf:resource="http://purl.org/dc/dcmitype/StillImage" />
        <dc:title />
      </cc:Work>
    </rdf:RDF>
  </metadata>
  <g
     inkscape:label="Ebene 1"
     inkscape:groupmode="layer"
     id="layer1"
     transform="translate(-196.10227,-561.10224)">
    <rect
       style="opacity:0.2;fill:#0b7cb7;fill-opacity:1;stroke-opacity:0"
       id="hover-center"
       width="15"
       height="15"
       x="225"
       y="595"
       inkscape:label="#center" />
    <g
       id="hover-left"
       inkscape:label="#left">
      <rect
         style="opacity:0.2;fill:#0b7cb7;fill-opacity:1;stroke-opacity:0"
         id="rect4988"
         width="5"
         height="15"
         x="220"
         y="595" />
      <path
         style="fill:#0b7cb6;fill-opacity:1;stroke:none;stroke-width:1px;stroke-linecap:butt;stroke-linejoin:miter;stroke-opacity:1"
         d="m 220,595 v 15 h 1 v -15 z"
         id="path4994" />
    </g>
    <g
       id="hover-right"
       inkscape:label="#right"
       style="fill:#1b1b1b;fill-opacity:0.85098">
      <rect
         style="opacity:0.2;fill:#0b7cb7;fill-opacity:1;stroke-opacity:0"
         id="rect4984"
         width="5"
         height="15"
         x="240"
         y="595" />
      <path
         style="fill:#0b7cb6;fill-opacity:1;stroke:none;stroke-width:1px;stroke-linecap:butt;stroke-linejoin:miter;stroke-opacity:1"
         d="m 244,595 v 15 h 1 v -15 z"
         id="path4996" />
    </g>
    <g
       id="hover-top"
       inkscape:label="#top">
      <rect
         style="opacity:0.2;fill:#0b7cb7;fill-opacity:1;stroke-opacity:0"
         id="rect4986"
         width="15"
         height="5"
         x="225"
         y="590" />
      <path
         style="fill:#0b7cb6;fill-opacity:1;stroke:none;stroke-width:1px;stroke-linecap:butt;stroke-linejoin:miter;stroke-opacity:1"
         d="m 225,590 h 15 v 1 h -15 z"
         id="path4998" />
    </g>
    <g
       id="hover-bottom"
       inkscape:label="#bottom">
      <rect
         style="opacity:0.2;fill:#0b7cb7;fill-opacity:1;stroke-opacity:0"
         id="rect4990"
         width="15"
         height="5"
         x="225"
         y="610" />
      <path
         style="fill:#0b7cb6;fill-opacity:1;stroke:none;stroke-width:1px;stroke-linecap:butt;stroke-linejoin:miter;stroke-opacity:1"
         d="m 225,615 h 15 v -1 h -15 z"
         id="path5000" />
    </g>
    <g
       id="hover-topleft"
       inkscape:label="#topleft">
      <path
         style="opacity:0.2;fill:#0b7cb7;fill-opacity:1;stroke:none;stroke-width:1px;stroke-linecap:butt;stroke-linejoin:miter;stroke-opacity:1"
         d="m 225,590 c -3,0 -5,2 -5,5 h 5 z"
         id="path5002"
         sodipodi:nodetypes="cccc" />
      <path
         style="fill:#0b7cb6;fill-opacity:1;stroke:none;stroke-width:1px;stroke-linecap:butt;stroke-linejoin:miter;stroke-opacity:1"
         d="m 220,595 c 0,-3 2,-5 5,-5 v 1 c -2,0 -4,2 -4,4 z"
         id="path5033"
         sodipodi:nodetypes="ccccc" />
    </g>
    <g
       id="hover-topright"
       inkscape:label="#topright"
       style="fill:#1b1b1b;fill-opacity:0.85098">
      <path
         style="opacity:0.2;fill:#0b7cb7;fill-opacity:1;stroke:none;stroke-width:1px;stroke-linecap:butt;stroke-linejoin:miter;stroke-opacity:1"
         d="m 245,595 c 0,-3 -2,-5 -5,-5 v 5 z"
         id="path5002-4"
         sodipodi:nodetypes="cccc" />
      <path
         style="fill:#0b7cb6;fill-opacity:1;stroke:none;stroke-width:1px;stroke-linecap:butt;stroke-linejoin:miter;stroke-opacity:1"
         d="m 240,590 c 3,0 5,2 5,5 h -1 c 0,-2 -2,-4 -4,-4 z"
         id="path5033-6"
         sodipodi:nodetypes="ccccc" />
    </g>
    <g
       id="hover-bottomright"
       inkscape:label="#bottomright"
       style="fill:#1b1b1b;fill-opacity:0.85098">
      <path
         style="opacity:0.2;fill:#0b7cb7;fill-opacity:1;stroke:none;stroke-width:1px;stroke-linecap:butt;stroke-linejoin:miter;stroke-opacity:1"
         d="m 240,615 c 3,0 5,-2 5,-5 h -5 z"
         id="path5002-44"
         sodipodi:nodetypes="cccc" />
      <path
         style="fill:#0b7cb6;fill-opacity:1;stroke:none;stroke-width:1px;stroke-linecap:butt;stroke-linejoin:miter;stroke-opacity:1"
         d="m 245,610 c 0,3 -2,5 -5,5 v -1 c 2,0 4,-2 4,-4 z"
         id="path5033-3"
         sodipodi:nodetypes="ccccc" />
    </g>
    <g
       id="hover-bottomleft"
       inkscape:label="#bottomleft">
      <path
         style="opacity:0.2;fill:#0b7cb7;fill-opacity:1;stroke:none;stroke-width:1px;stroke-linecap:butt;stroke-linejoin:miter;stroke-opacity:1"
         d="m 220,610 c 0,3 2,5 5,5 v -5 z"
         id="path5002-7"
         sodipodi:nodetypes="cccc" />
      <path
         style="fill:#0b7cb6;fill-opacity:1;stroke:none;stroke-width:1px;stroke-linecap:butt;stroke-linejoin:miter;stroke-opacity:1"
         d="m 225,615 c -3,0 -5,-2 -5,-5 h 1 c 0,2 2,4 4,4 z"
         id="path5033-1"
         sodipodi:nodetypes="ccccc" />
    </g>
    <rect
       style="opacity:0.5;fill:#0b7cb7;fill-opacity:1;stroke-opacity:0"
       id="selected-center"
       width="15"
       height="15"
       x="254.99992"
       y="594.99988"
       inkscape:label="#center" />
    <g
       id="selected-left"
       inkscape:label="#left"
       transform="translate(29.99992,-1.3e-4)">
      <rect
         style="opacity:0.5;fill:#0b7cb7;fill-opacity:1;stroke-opacity:0"
         id="rect4988-5"
         width="5"
         height="15"
         x="220"
         y="595" />
      <path
         style="fill:#0b7cb6;fill-opacity:1;stroke:none;stroke-width:1px;stroke-linecap:butt;stroke-linejoin:miter;stroke-opacity:1"
         d="m 220,595 v 15 h 1 v -15 z"
         id="path4994-6" />
    </g>
    <g
       id="selected-right"
       inkscape:label="#right"
       transform="translate(29.99992,-1.3e-4)">
      <rect
         style="opacity:0.5;fill:#0b7cb7;fill-opacity:1;stroke-opacity:0"
         id="rect4984-9"
         width="5"
         height="15"
         x="240"
         y="595" />
      <path
         style="fill:#0b7cb6;fill-opacity:1;stroke:none;stroke-width:1px;stroke-linecap:butt;stroke-linejoin:miter;stroke-opacity:1"
         d="m 244,595 v 15 h 1 v -15 z"
         id="path4996-1" />
    </g>
    <g
       id="selected-top"
       inkscape:label="#top"
       transform="translate(29.99992,-1.3e-4)">
      <rect
         style="opacity:0.5;fill:#0b7cb7;fill-opacity:1;stroke-opacity:0"
         id="rect4986-7"
         width="15"
         height="5"
         x="225"
         y="590" />
      <path
         style="fill:#0b7cb6;fill-opacity:1;stroke:none;stroke-width:1px;stroke-linecap:butt;stroke-linejoin:miter;stroke-opacity:1"
         d="m 225,590 h 15 v 1 h -15 z"
         id="path4998-0" />
    </g>
    <g
       id="selected-bottom"
       inkscape:label="#bottom"
       transform="translate(29.99992,-1.3e-4)">
      <rect
         style="opacity:0.5;fill:#0b7cb7;fill-opacity:1;stroke-opacity:0"
         id="rect4990-3"
         width="15"
         height="5"
         x="225"
         y="610" />
      <path
         style="fill:#0b7cb6;fill-opacity:1;stroke:none;stroke-width:1px;stroke-linecap:butt;stroke-linejoin:miter;stroke-opacity:1"
         d="m 225,615 h 15 v -1 h -15 z"
         id="path5000-6" />
    </g>
    <g
       id="selected-topleft"
       inkscape:label="#topleft"
       transform="translate(29.99992,-1.3e-4)">
      <path
         style="opacity:0.5;fill:#0b7cb7;fill-opacity:1;stroke:none;stroke-width:1px;stroke-linecap:butt;stroke-linejoin:miter;stroke-opacity:1"
         d="m 225,590 c -3,0 -5,2 -5,5 h 5 z"
         id="path5002-6"
         sodipodi:nodetypes="cccc" />
      <path
         style="fill:#0b7cb6;fill-opacity:1;stroke:none;stroke-width:1px;stroke-linecap:butt;stroke-linejoin:miter;stroke-opacity:1"
         d="m 220,595 c 0,-3 2,-5 5,-5 v 1 c -2,0 -4,2 -4,4 z"
         id="path5033-2"
         sodipodi:nodetypes="ccccc" />
    </g>
    <g
       id="selected-topright"
       inkscape:label="#topright"
       transform="translate(29.99992,-1.3e-4)">
      <path
         style="opacity:0.5;fill:#0b7cb7;fill-opacity:1;stroke:none;stroke-width:1px;stroke-linecap:butt;stroke-linejoin:miter;stroke-opacity:1"
         d="m 245,595 c 0,-3 -2,-5 -5,-5 v 5 z"
         id="path5002-4-1"
         sodipodi:nodetypes="cccc" />
      <path
         style="fill:#0b7cb6;fill-opacity:1;stroke:none;stroke-width:1px;stroke-linecap:butt;stroke-linejoin:miter;stroke-opacity:1"
         d="m 240,590 c 3,0 5,2 5,5 h -1 c 0,-2 -2,-4 -4,-4 z"
         id="path5033-6-8"
         sodipodi:nodetypes="ccccc" />
    </g>
    <g
       id="selected-bottomright"
       inkscape:label="#bottomright"
       transform="translate(29.99992,-1.3e-4)">
      <path
         style="opacity:0.5;fill:#0b7cb7;fill-opacity:1;stroke:none;stroke-width:1px;stroke-linecap:butt;stroke-linejoin:miter;stroke-opacity:1"
         d="m 240,615 c 3,0 5,-2 5,-5 h -5 z"
         id="path5002-44-9"
         sodipodi:nodetypes="cccc" />
      <path
         style="fill:#0b7cb6;fill-opacity:1;stroke:none;stroke-width:1px;stroke-linecap:butt;stroke-linejoin:miter;stroke-opacity:1"
         d="m 245,610 c 0,3 -2,5 -5,5 v -1 c 2,0 4,-2 4,-4 z"
         id="path5033-3-2"
         sodipodi:nodetypes="ccccc" />
    </g>
    <g
       id="selected-bottomleft"
       inkscape:label="#bottomleft"
       transform="translate(29.99992,-1.3e-4)">
      <path
         style="opacity:0.5;fill:#0b7cb7;fill-opacity:1;stroke:none;stroke-width:1px;stroke-linecap:butt;stroke-linejoin:miter;stroke-opacity:1"
         d="m 220,610 c 0,3 2,5 5,5 v -5 z"
         id="path5002-7-2"
         sodipodi:nodetypes="cccc" />
      <path
         style="fill:#0b7cb6;fill-opacity:1;stroke:none;stroke-width:1px;stroke-linecap:butt;stroke-linejoin:miter;stroke-opacity:1"
         d="m 225,615 c -3,0 -5,-2 -5,-5 h 1 c 0,2 2,4 4,4 z"
         id="path5033-1-3"
         sodipodi:nodetypes="ccccc" />
    </g>
    <rect
       style="opacity:0.8;fill:#0b7cb7;fill-opacity:1;stroke-opacity:0"
       id="selected+hover-center2"
       width="15"
       height="15"
       x="284.99991"
       y="594.99988"
       inkscape:label="#selected+hover-center" />
    <g
       id="selected+hover-left"
       inkscape:label="#left"
       transform="translate(59.999901,-1.3792969e-4)">
      <rect
         style="opacity:0.8;fill:#0b7cb7;fill-opacity:1;stroke-opacity:0"
         id="rect4988-5-2"
         width="5"
         height="15"
         x="220"
         y="595" />
      <path
         style="fill:#0b7cb6;fill-opacity:1;stroke:none;stroke-width:1px;stroke-linecap:butt;stroke-linejoin:miter;stroke-opacity:1"
         d="m 220,595 v 15 h 1 v -15 z"
         id="path4994-6-9" />
    </g>
    <g
       id="selected+hover-right"
       inkscape:label="#right"
       transform="translate(59.999901,-1.3792969e-4)">
      <rect
         style="opacity:0.8;fill:#0b7cb7;fill-opacity:1;stroke-opacity:0"
         id="rect4984-9-1"
         width="5"
         height="15"
         x="240"
         y="595" />
      <path
         style="fill:#0b7cb6;fill-opacity:1;stroke:none;stroke-width:1px;stroke-linecap:butt;stroke-linejoin:miter;stroke-opacity:1"
         d="m 244,595 v 15 h 1 v -15 z"
         id="path4996-1-9" />
    </g>
    <g
       id="selected+hover-top"
       inkscape:label="#top"
       transform="translate(59.999901,-1.3792969e-4)">
      <rect
         style="opacity:0.8;fill:#0b7cb7;fill-opacity:1;stroke-opacity:0"
         id="rect4986-7-7"
         width="15"
         height="5"
         x="225"
         y="590" />
      <path
         style="fill:#0b7cb6;fill-opacity:1;stroke:none;stroke-width:1px;stroke-linecap:butt;stroke-linejoin:miter;stroke-opacity:1"
         d="m 225,590 h 15 v 1 h -15 z"
         id="path4998-0-8" />
    </g>
    <g
       id="selected+hover-bottom"
       inkscape:label="#bottom"
       transform="translate(59.999901,-1.3792969e-4)">
      <rect
         style="opacity:0.8;fill:#0b7cb7;fill-opacity:1;stroke-opacity:0"
         id="rect4990-3-5"
         width="15"
         height="5"
         x="225"
         y="610" />
      <path
         style="fill:#0b7cb6;fill-opacity:1;stroke:none;stroke-width:1px;stroke-linecap:butt;stroke-linejoin:miter;stroke-opacity:1"
         d="m 225,615 h 15 v -1 h -15 z"
         id="path5000-6-0" />
    </g>
    <g
       id="selected+hover-topleft"
       inkscape:label="#topleft"
       transform="translate(59.999901,-1.3792969e-4)">
      <path
         style="opacity:0.8;fill:#0b7cb7;fill-opacity:1;stroke:none;stroke-width:1px;stroke-linecap:butt;stroke-linejoin:miter;stroke-opacity:1"
         d="m 225,590 c -3,0 -5,2 -5,5 h 5 z"
         id="path5002-6-6"
         sodipodi:nodetypes="cccc" />
      <path
         style="fill:#0b7cb6;fill-opacity:1;stroke:none;stroke-width:1px;stroke-linecap:butt;stroke-linejoin:miter;stroke-opacity:1"
         d="m 220,595 c 0,-3 2,-5 5,-5 v 1 c -2,0 -4,2 -4,4 z"
         id="path5033-2-1"
         sodipodi:nodetypes="ccccc" />
    </g>
    <g
       id="selected+hover-topright"
       inkscape:label="#topright"
       transform="translate(59.999901,-1.3792969e-4)">
      <path
         style="opacity:0.8;fill:#0b7cb7;fill-opacity:1;stroke:none;stroke-width:1px;stroke-linecap:butt;stroke-linejoin:miter;stroke-opacity:1"
         d="m 245,595 c 0,-3 -2,-5 -5,-5 v 5 z"
         id="path5002-4-1-6"
         sodipodi:nodetypes="cccc" />
      <path
         style="fill:#0b7cb6;fill-opacity:1;stroke:none;stroke-width:1px;stroke-linecap:butt;stroke-linejoin:miter;stroke-opacity:1"
         d="m 240,590 c 3,0 5,2 5,5 h -1 c 0,-2 -2,-4 -4,-4 z"
         id="path5033-6-8-3"
         sodipodi:nodetypes="ccccc" />
    </g>
    <g
       id="selected+hover-bottomright"
       inkscape:label="#bottomright"
       transform="translate(59.999901,-1.3792969e-4)">
      <path
         style="opacity:0.8;fill:#0b7cb7;fill-opacity:1;stroke:none;stroke-width:1px;stroke-linecap:butt;stroke-linejoin:miter;stroke-opacity:1"
         d="m 240,615 c 3,0 5,-2 5,-5 h -5 z"
         id="path5002-44-9-0"
         sodipodi:nodetypes="cccc" />
      <path
         style="fill:#0b7cb6;fill-opacity:1;stroke:none;stroke-width:1px;stroke-linecap:butt;stroke-linejoin:miter;stroke-opacity:1"
         d="m 245,610 c 0,3 -2,5 -5,5 v -1 c 2,0 4,-2 4,-4 z"
         id="path5033-3-2-6"
         sodipodi:nodetypes="ccccc" />
    </g>
    <g
       id="selected+hover-bottomleft"
       inkscape:label="#bottomleft"
       transform="translate(59.999901,-1.3792969e-4)">
      <path
         style="opacity:0.8;fill:#0b7cb7;fill-opacity:1;stroke:none;stroke-width:1px;stroke-linecap:butt;stroke-linejoin:miter;stroke-opacity:1"
         d="m 220,610 c 0,3 2,5 5,5 v -5 z"
         id="path5002-7-2-5"
         sodipodi:nodetypes="cccc" />
      <path
         style="fill:#0b7cb6;fill-opacity:1;stroke:none;stroke-width:1px;stroke-linecap:butt;stroke-linejoin:miter;stroke-opacity:1"
         d="m 225,615 c -3,0 -5,-2 -5,-5 h 1 c 0,2 2,4 4,4 z"
         id="path5033-1-3-5"
         sodipodi:nodetypes="ccccc" />
    </g>
    <rect
       style="fill:#1b1b1b;fill-opacity:1;stroke-opacity:0.3"
       id="hint-stretch-borders"
       width="5"
       height="5"
       x="214.99991"
       y="579.99988"
       inkscape:label="#hint-stretch-borders" />
  </g>
</svg>
