<?xml version="1.0" encoding="UTF-8" standalone="no"?>
<!-- Created with Inkscape (http://www.inkscape.org/) -->

<svg
   width="119"
   height="44"
   viewBox="0 0 119 44"
   version="1.1"
   id="svg5"
   inkscape:version="1.1 (c68e22c387, 2021-05-23)"
   sodipodi:docname="tooltip.svg"
   xmlns:inkscape="http://www.inkscape.org/namespaces/inkscape"
   xmlns:sodipodi="http://sodipodi.sourceforge.net/DTD/sodipodi-0.dtd"
   xmlns="http://www.w3.org/2000/svg"
   xmlns:svg="http://www.w3.org/2000/svg">
  <sodipodi:namedview
     id="namedview7"
     pagecolor="#ffffff"
     bordercolor="#111111"
     borderopacity="1"
     inkscape:pageshadow="0"
     inkscape:pageopacity="0"
     inkscape:pagecheckerboard="1"
     inkscape:document-units="px"
     showgrid="true"
     fit-margin-left="2"
     fit-margin-top="2"
     fit-margin-bottom="2"
     fit-margin-right="2"
     units="px"
     scale-x="1"
     inkscape:zoom="14.496699"
     inkscape:cx="68.015484"
     inkscape:cy="21.660103"
     inkscape:window-width="2560"
     inkscape:window-height="1272"
     inkscape:window-x="0"
     inkscape:window-y="0"
     inkscape:window-maximized="1"
     inkscape:current-layer="layer1">
    <inkscape:grid
       type="xygrid"
       id="grid928"
       originx="-263"
       originy="-343" />
  </sodipodi:namedview>
  <defs
     id="defs2" />
  <g
     inkscape:label="Ebene 1"
     inkscape:groupmode="layer"
     id="layer1"
     transform="translate(-263,-343)">
    <rect
       style="opacity:1;fill:#ffffff;fill-opacity:1;fill-rule:nonzero"
       id="center"
       width="15"
       height="15"
       x="280"
       y="360" />
    <rect
       style="opacity:1;fill-opacity:1;fill-rule:evenodd;fill:#ffffff"
       id="right"
       width="5"
       height="15"
       x="295"
       y="360" />
    <rect
       style="opacity:1;fill-opacity:1;fill-rule:nonzero;fill:#ffffff"
       id="top"
       width="15"
       height="5"
       x="280"
       y="355" />
    <rect
       style="opacity:1;fill-opacity:1;fill-rule:evenodd;fill:#ffffff"
       id="left"
       width="5"
       height="15"
       x="275"
       y="360" />
    <rect
       style="opacity:1;fill-opacity:1;fill-rule:evenodd;fill:#ffffff"
       id="bottom"
       width="15"
       height="5"
       x="280"
       y="375" />
    <path
       d="m 295,355 v 5 h 5 c 0,-2 -3,-5 -5,-5 z"
       id="topright"
       sodipodi:nodetypes="cccc"
       style="opacity:1;fill-opacity:1;fill-rule:nonzero;fill:#ffffff" />
    <path
       d="m 275,360 h 5 v -5 c -2,0 -5,3 -5,5 z"
       id="topleft"
       sodipodi:nodetypes="cccc"
       style="opacity:1;fill-opacity:1;fill-rule:nonzero;fill:#ffffff" />
    <path
       d="m 280,380 v -5 h -5 c 0,2 3,5 5,5 z"
       id="bottomleft"
       sodipodi:nodetypes="cccc"
       style="opacity:1;fill-opacity:1;fill-rule:nonzero;fill:#ffffff" />
    <path
       d="m 300,375 h -5 v 5 c 2,0 5,-3 5,-5 z"
       id="bottomright"
       sodipodi:nodetypes="cccc"
       style="opacity:1;fill-opacity:1;fill-rule:nonzero;fill:#ffffff" />
    <rect
       style="fill:#000000;fill-opacity:1;fill-rule:nonzero"
       id="mask-center"
       width="15"
       height="15"
       x="360"
       y="360" />
    <rect
       style="fill:#000000;fill-opacity:1;fill-rule:evenodd"
       id="mask-right"
       width="5"
       height="15"
       x="375"
       y="360" />
    <rect
       style="fill:#000000;fill-opacity:1;fill-rule:nonzero"
       id="mask-top"
       width="15"
       height="5"
       x="360"
       y="355" />
    <rect
       style="fill:#000000;fill-opacity:1;fill-rule:evenodd"
       id="mask-left"
       width="5"
       height="15"
       x="355"
       y="360" />
    <rect
       style="fill:#000000;fill-opacity:1;fill-rule:evenodd"
       id="mask-bottom"
       width="15"
       height="5"
       x="360"
       y="375" />
    <path
       d="m 375,355 v 5 h 5 c 0,-2 -3,-5 -5,-5 z"
       id="mask-topright"
       sodipodi:nodetypes="cccc"
       style="fill:#000000;fill-opacity:1" />
    <path
       d="m 355,360 h 5 v -5 c -2,0 -5,3 -5,5 z"
       id="mask-topleft"
       sodipodi:nodetypes="cccc"
       style="fill:#000000;fill-opacity:1" />
    <path
       d="m 360,380 v -5 h -5 c 0,2 3,5 5,5 z"
       id="mask-bottomleft"
       sodipodi:nodetypes="cccc"
       style="fill:#000000;fill-opacity:1" />
    <path
       d="m 380,375 h -5 v 5 c 2,0 5,-3 5,-5 z"
       id="mask-bottomright"
       sodipodi:nodetypes="cccc"
       style="fill:#000000;fill-opacity:1" />
    <rect
       style="opacity:1;fill:#ff6600;fill-opacity:1;fill-rule:nonzero"
       id="hint-left-margin"
       width="5"
       height="1"
       x="275"
       y="367" />
    <rect
       style="opacity:1;fill:#ff6600;fill-opacity:1;fill-rule:nonzero;stroke-width:1"
       id="hint-top-margin"
       width="1"
       height="5"
       x="287"
       y="355" />
    <rect
       style="opacity:1;fill:#ff6600;fill-opacity:1;fill-rule:nonzero"
       id="hint-right-margin"
       width="5"
       height="1"
       x="295"
       y="367" />
    <rect
       style="opacity:1;fill:#ff6600;fill-opacity:1;fill-rule:nonzero"
       id="hint-bottom-margin"
       width="1"
       height="5"
       x="287"
       y="375" />
    <rect
       style="opacity:1;fill:#00ffff;fill-opacity:1;fill-rule:nonzero;stroke-width:0.0119523"
       id="hint-left-inset"
       width="0.001"
       height="1"
       x="275"
       y="366" />
    <rect
       style="opacity:1;fill:#00ffff;fill-opacity:1;fill-rule:nonzero;stroke-width:0.0119523"
       id="hint-top-inset"
       width="1"
       height="0.001"
       x="288"
       y="355" />
    <rect
       style="opacity:1;fill:#00ffff;fill-opacity:1;fill-rule:nonzero;stroke-width:0.0119523"
       id="hint-right-inset"
       width="0.001"
       height="1"
       x="300"
       y="368" />
    <rect
       style="opacity:1;fill:#00ffff;fill-opacity:1;fill-rule:nonzero;stroke-width:0.0119523"
       id="hint-bottom-inset"
       width="1"
       height="0.001"
       x="286"
       y="380" />
    <rect
       style="opacity:1;fill:#ff6600;fill-opacity:1;fill-rule:nonzero;stroke-width:0.6"
       id="hint-stretch-borders"
       width="3"
       height="3"
       x="275"
       y="350" />
    <g
       id="g4866">
      <g
         id="g4869" />
    </g>
  </g>
</svg>
